<?xml version="1.0" encoding="utf-8"?>
<!-- Generator: Adobe Illustrator 15.0.2, SVG Export Plug-In . SVG Version: 6.00 Build 0)  -->
<!DOCTYPE svg PUBLIC "-//W3C//DTD SVG 1.1//EN" "http://www.w3.org/Graphics/SVG/1.1/DTD/svg11.dtd">
<svg version="1.1" id="Layer_1" xmlns="http://www.w3.org/2000/svg" xmlns:xlink="http://www.w3.org/1999/xlink" x="0px" y="0px"
	 width="14px" height="14px" viewBox="0 0 14 14" enable-background="new 0 0 14 14" xml:space="preserve">
<g>
	<g>
		<path fill="#FAA732" d="M6.097,1.231c0.497-0.9,1.309-0.9,1.806,0l5.726,10.384c0.496,0.901,0.061,1.638-0.968,1.638H1.338
			c-1.028,0-1.463-0.736-0.967-1.638L6.097,1.231z"/>
	</g>
	<g>
		<path fill="#FFFFFF" d="M7.006,11.92c-0.607,0-1.027-0.455-1.027-1.063c0-0.631,0.431-1.062,1.051-1.062
			c0.62,0,1.029,0.432,1.041,1.062c0,0.608-0.408,1.063-1.041,1.063H7.006z M6.363,9.208L5.748,3.915h2.503L7.695,9.208H6.363z"/>
	</g>
</g>
</svg>
